<svg aria-hidden="true" style="position: absolute; width: 0; height: 0; overflow: hidden;" version="1.1" xmlns="http://www.w3.org/2000/svg" xmlns:xlink="http://www.w3.org/1999/xlink">
<defs>
<symbol id="icon-phone-icon" viewBox="0 0 32 32">
<path d="M13.24 13.247c-1.891 1.896-2.897 3.047-3.953 4.677-0.941 1.453-1.566 2.63-1.734 3.13-0.486 1.447-0.040 1.817 0.544 2.255s1.361 1.006 1.872 1.219c0.341 0.143 0.651 0.253 1.173-0.202s2.179-2.080 2.595-2.522c0.745-0.79 0.389-1.015 0.107-1.477s-1.127-1.29-1.106-1.836c0.022-0.568 0.27-0.807 0.647-1.287 0.361-0.459 1.733-1.833 1.856-1.956l0.007-0.007c0.123-0.123 1.497-1.496 1.956-1.856 0.48-0.377 0.719-0.626 1.287-0.647 0.546-0.021 1.375 0.823 1.836 1.106s0.687 0.639 1.477-0.107c0.441-0.416 2.066-2.073 2.522-2.595s0.345-0.832 0.202-1.173c-0.214-0.511-0.782-1.289-1.219-1.872s-0.808-1.030-2.255-0.544c-0.5 0.168-1.677 0.793-3.13 1.734-1.631 1.056-2.781 2.062-4.677 3.953l-0.007 0.007z"></path>
<path d="M16 0c8.837 0 16 7.163 16 16s-7.163 16-16 16-16-7.163-16-16 7.163-16 16-16zM16 1.998c-7.733 0-14.002 6.269-14.002 14.002s6.269 14.002 14.002 14.002 14.002-6.269 14.002-14.002-6.269-14.002-14.002-14.002z"></path>
</symbol>
<symbol id="corner" viewBox="0 0 22 32">
<path d="M4.5 0v26h3.5v-22.5h8v-3.5z"></path>
</symbol>
<symbol id="icon-large-corner" viewBox="0 0 32 32">
<path d="M14.995 31.68v-29.478h4.39v-1.882h-6.771v31.36h2.381z"></path>
</symbol>
<symbol id="icon-phone" viewBox="0 0 32 32">
<path d="M22 20c-2 2-2 4-4 4s-4-2-6-4-4-4-4-6 2-2 4-4-4-8-6-8-6 6-6 6c0 4 4.109 12.109 8 16s12 8 16 8c0 0 6-4 6-6s-6-8-8-6z"></path>
</symbol>
<symbol id="icon-checkmark" viewBox="0 0 32 32">
<path d="M27 4l-15 15-7-7-5 5 12 12 20-20z"></path>
</symbol>
<symbol id="icon-envelope" viewBox="0 0 45 32">
<path d="M40.602 0h-36.4c-2.317 0-4.202 1.792-4.202 4v24c0 2.208 1.885 4 4.202 4h36.4c2.31 0 4.198-1.792 4.198-4v-24c0-2.208-1.885-4-4.202-4zM40.602 2.666c0.189 0 0.368 0.038 0.534 0.106l-18.736 15.466-18.736-15.466c0.158-0.066 0.342-0.104 0.534-0.106h36.401zM40.602 29.334h-36.4c-0.010 0-0.021 0-0.032 0-0.744 0-1.35-0.593-1.369-1.333l-0-0.002v-22.413l18.682 15.421c0.247 0.206 0.568 0.331 0.918 0.331s0.671-0.125 0.921-0.333l-0.002 0.002 18.682-15.421v22.413c0 0.736-0.627 1.334-1.402 1.334z"></path>
</symbol>
<symbol id="icon-phone-footer" viewBox="0 0 23 32">
<path d="M19.429 0h-16c-1.89 0-3.429 1.346-3.429 3.001v25.998c0 1.657 1.538 3.001 3.429 3.001h16c1.89 0 3.429-1.346 3.429-3.001v-25.998c0-1.655-1.538-3.001-3.429-3.001zM3.429 2h16c0.631 0 1.143 0.448 1.143 1.001v20.999h-18.286v-21.001c0-0.549 0.512-0.999 1.143-0.999zM19.429 30h-16c-0.631 0-1.143-0.448-1.143-1.001v-2.999h18.286v3.001c0 0.549-0.512 0.999-1.143 0.999z"></path>
</symbol>
<symbol id="icon-office" viewBox="0 0 32 32">
<path d="M0 32h16v-32h-16v32zM10 4h4v4h-4v-4zM10 12h4v4h-4v-4zM10 20h4v4h-4v-4zM2 4h4v4h-4v-4zM2 12h4v4h-4v-4zM2 20h4v4h-4v-4zM18 10h14v2h-14zM18 32h4v-8h6v8h4v-18h-14z"></path>
</symbol>
<symbol id="icon-whatsapp" viewBox="0 0 32 32">
<path d="M27.281 4.65c-2.994-3-6.975-4.65-11.219-4.65-8.738 0-15.85 7.112-15.85 15.856 0 2.794 0.731 5.525 2.119 7.925l-2.25 8.219 8.406-2.206c2.319 1.262 4.925 1.931 7.575 1.931h0.006c0 0 0 0 0 0 8.738 0 15.856-7.113 15.856-15.856 0-4.238-1.65-8.219-4.644-11.219zM16.069 29.050v0c-2.369 0-4.688-0.637-6.713-1.837l-0.481-0.288-4.987 1.306 1.331-4.863-0.313-0.5c-1.325-2.094-2.019-4.519-2.019-7.012 0-7.269 5.912-13.181 13.188-13.181 3.519 0 6.831 1.375 9.319 3.862 2.488 2.494 3.856 5.8 3.856 9.325-0.006 7.275-5.919 13.188-13.181 13.188zM23.294 19.175c-0.394-0.2-2.344-1.156-2.706-1.288s-0.625-0.2-0.894 0.2c-0.262 0.394-1.025 1.288-1.256 1.556-0.231 0.262-0.462 0.3-0.856 0.1s-1.675-0.619-3.188-1.969c-1.175-1.050-1.975-2.35-2.206-2.744s-0.025-0.613 0.175-0.806c0.181-0.175 0.394-0.463 0.594-0.694s0.262-0.394 0.394-0.662c0.131-0.262 0.069-0.494-0.031-0.694s-0.894-2.15-1.219-2.944c-0.319-0.775-0.65-0.669-0.894-0.681-0.231-0.012-0.494-0.012-0.756-0.012s-0.694 0.1-1.056 0.494c-0.363 0.394-1.387 1.356-1.387 3.306s1.419 3.831 1.619 4.1c0.2 0.262 2.794 4.269 6.769 5.981 0.944 0.406 1.681 0.65 2.256 0.837 0.95 0.3 1.813 0.256 2.494 0.156 0.762-0.113 2.344-0.956 2.675-1.881s0.331-1.719 0.231-1.881c-0.094-0.175-0.356-0.275-0.756-0.475z"></path>
</symbol>
<symbol id="icon-telegram" viewBox="0 0 32 32">
<path d="M16 0c-8.838 0-16 7.162-16 16s7.162 16 16 16 16-7.163 16-16-7.163-16-16-16zM23.863 10.969l-2.625 12.369c-0.181 0.881-0.712 1.087-1.45 0.681l-4-2.956-1.919 1.869c-0.225 0.219-0.4 0.4-0.8 0.4-0.519 0-0.431-0.194-0.606-0.688l-1.363-4.475-3.956-1.231c-0.856-0.262-0.862-0.85 0.194-1.269l15.412-5.95c0.7-0.319 1.381 0.169 1.113 1.25z"></path>
</symbol>
</defs>
</svg>
