<svg aria-hidden="true" style="position: absolute; width: 0; height: 0; overflow: hidden;" version="1.1" xmlns="http://www.w3.org/2000/svg" xmlns:xlink="http://www.w3.org/1999/xlink">
<defs>
<symbol id="icon-phone-icon" viewBox="0 0 32 32">
<path d="M13.24 13.247c-1.891 1.896-2.897 3.047-3.953 4.677-0.941 1.453-1.566 2.63-1.734 3.13-0.486 1.447-0.040 1.817 0.544 2.255s1.361 1.006 1.872 1.219c0.341 0.143 0.651 0.253 1.173-0.202s2.179-2.080 2.595-2.522c0.745-0.79 0.389-1.015 0.107-1.477s-1.127-1.29-1.106-1.836c0.022-0.568 0.27-0.807 0.647-1.287 0.361-0.459 1.733-1.833 1.856-1.956l0.007-0.007c0.123-0.123 1.497-1.496 1.956-1.856 0.48-0.377 0.719-0.626 1.287-0.647 0.546-0.021 1.375 0.823 1.836 1.106s0.687 0.639 1.477-0.107c0.441-0.416 2.066-2.073 2.522-2.595s0.345-0.832 0.202-1.173c-0.214-0.511-0.782-1.289-1.219-1.872s-0.808-1.030-2.255-0.544c-0.5 0.168-1.677 0.793-3.13 1.734-1.631 1.056-2.781 2.062-4.677 3.953l-0.007 0.007z"></path>
<path d="M16 0c8.837 0 16 7.163 16 16s-7.163 16-16 16-16-7.163-16-16 7.163-16 16-16zM16 1.998c-7.733 0-14.002 6.269-14.002 14.002s6.269 14.002 14.002 14.002 14.002-6.269 14.002-14.002-6.269-14.002-14.002-14.002z"></path>
</symbol>
<symbol id="corner" viewBox="0 0 22 32">
<path d="M4.5 0v26h3.5v-22.5h8v-3.5z"></path>
</symbol>
<symbol id="icon-large-corner" viewBox="0 0 60 32">
<path stroke-linejoin="miter" stroke-linecap="butt" stroke-miterlimit="4" stroke-width="0.8" d="M5.653 22.916l-0.172-9.39h48.913"></path>
</symbol>
</defs>
</svg>
