<svg aria-hidden="true" style="position: absolute; width: 0; height: 0; overflow: hidden;" version="1.1" xmlns="http://www.w3.org/2000/svg" xmlns:xlink="http://www.w3.org/1999/xlink">
<defs>
<symbol id="icon-phone-icon" viewBox="0 0 32 32">
<path d="M13.24 13.247c-1.891 1.896-2.897 3.047-3.953 4.677-0.941 1.453-1.566 2.63-1.734 3.13-0.486 1.447-0.040 1.817 0.544 2.255s1.361 1.006 1.872 1.219c0.341 0.143 0.651 0.253 1.173-0.202s2.179-2.080 2.595-2.522c0.745-0.79 0.389-1.015 0.107-1.477s-1.127-1.29-1.106-1.836c0.022-0.568 0.27-0.807 0.647-1.287 0.361-0.459 1.733-1.833 1.856-1.956l0.007-0.007c0.123-0.123 1.497-1.496 1.956-1.856 0.48-0.377 0.719-0.626 1.287-0.647 0.546-0.021 1.375 0.823 1.836 1.106s0.687 0.639 1.477-0.107c0.441-0.416 2.066-2.073 2.522-2.595s0.345-0.832 0.202-1.173c-0.214-0.511-0.782-1.289-1.219-1.872s-0.808-1.030-2.255-0.544c-0.5 0.168-1.677 0.793-3.13 1.734-1.631 1.056-2.781 2.062-4.677 3.953l-0.007 0.007z"></path>
<path d="M16 0c8.837 0 16 7.163 16 16s-7.163 16-16 16-16-7.163-16-16 7.163-16 16-16zM16 1.998c-7.733 0-14.002 6.269-14.002 14.002s6.269 14.002 14.002 14.002 14.002-6.269 14.002-14.002-6.269-14.002-14.002-14.002z"></path>
</symbol>
<symbol id="corner" viewBox="0 0 22 32">
<path d="M4.5 0v26h3.5v-22.5h8v-3.5z"></path>
</symbol>
<symbol id="icon-large-corner" viewBox="0 0 32 32">
<path d="M14.995 31.68v-29.478h4.39v-1.882h-6.771v31.36h2.381z"></path>
</symbol>
<symbol id="icon-phone" viewBox="0 0 32 32">
<path d="M22 20c-2 2-2 4-4 4s-4-2-6-4-4-4-4-6 2-2 4-4-4-8-6-8-6 6-6 6c0 4 4.109 12.109 8 16s12 8 16 8c0 0 6-4 6-6s-6-8-8-6z"></path>
</symbol>
<symbol id="icon-checkmark" viewBox="0 0 32 32">
<path d="M27 4l-15 15-7-7-5 5 12 12 20-20z"></path>
</symbol>
<symbol id="icon-envelope" viewBox="0 0 45 32">
<path d="M40.602 0h-36.4c-2.317 0-4.202 1.792-4.202 4v24c0 2.208 1.885 4 4.202 4h36.4c2.31 0 4.198-1.792 4.198-4v-24c0-2.208-1.885-4-4.202-4zM40.602 2.666c0.189 0 0.368 0.038 0.534 0.106l-18.736 15.466-18.736-15.466c0.158-0.066 0.342-0.104 0.534-0.106h36.401zM40.602 29.334h-36.4c-0.010 0-0.021 0-0.032 0-0.744 0-1.35-0.593-1.369-1.333l-0-0.002v-22.413l18.682 15.421c0.247 0.206 0.568 0.331 0.918 0.331s0.671-0.125 0.921-0.333l-0.002 0.002 18.682-15.421v22.413c0 0.736-0.627 1.334-1.402 1.334z"></path>
</symbol>
<symbol id="icon-phone-footer" viewBox="0 0 23 32">
<path d="M19.429 0h-16c-1.89 0-3.429 1.346-3.429 3.001v25.998c0 1.657 1.538 3.001 3.429 3.001h16c1.89 0 3.429-1.346 3.429-3.001v-25.998c0-1.655-1.538-3.001-3.429-3.001zM3.429 2h16c0.631 0 1.143 0.448 1.143 1.001v20.999h-18.286v-21.001c0-0.549 0.512-0.999 1.143-0.999zM19.429 30h-16c-0.631 0-1.143-0.448-1.143-1.001v-2.999h18.286v3.001c0 0.549-0.512 0.999-1.143 0.999z"></path>
</symbol>
</defs>
</svg>
