<svg xmlns="http://www.w3.org/2000/svg" viewBox="0 0 578.56 578.56"><path d="M239.386 239.51c-34.191 34.28-52.373 55.086-71.47 84.566-17.018 26.272-28.306 47.55-31.346 56.598-8.789 26.156-.717 32.858 9.84 40.768 10.557 7.91 24.614 18.18 33.854 22.047 6.163 2.58 11.768 4.575 21.21-3.657 9.443-8.232 39.389-37.614 46.917-45.592 13.477-14.283 7.041-18.36 1.932-26.697-5.109-8.338-20.37-23.323-19.992-33.192.393-10.273 4.883-14.586 11.702-23.266 6.52-8.298 31.336-33.147 33.558-35.37l.125-.124c2.222-2.222 27.066-27.044 35.369-33.558 8.68-6.82 12.994-11.31 23.266-11.703 9.87-.377 24.854 14.884 33.193 19.992 8.338 5.108 12.414 11.544 26.697-1.932 7.977-7.528 37.36-37.472 45.59-46.916 8.232-9.443 6.237-15.048 3.658-21.211-3.867-9.24-14.137-23.297-22.047-33.854-7.91-10.557-14.612-18.628-40.768-9.84-9.048 3.04-30.326 14.329-56.598 31.347-29.48 19.097-50.284 37.28-84.566 71.47l-.125.124z"/><path d="M289.286 0c159.78 0 289.28 129.5 289.28 289.28s-129.5 289.28-289.28 289.28S.006 449.06.006 289.28 129.506 0 289.286 0zm0 36.133c-139.81 0-253.15 113.34-253.15 253.15s113.34 253.15 253.15 253.15 253.15-113.34 253.15-253.15-113.34-253.15-253.15-253.15z"/></svg>